<?xml version="1.0" encoding="UTF-8"?>
<!DOCTYPE svg PUBLIC "-//W3C//DTD SVG 1.1//EN" "http://www.w3.org/Graphics/SVG/1.1/DTD/svg11.dtd">
<!-- Creator: CorelDRAW X7 -->
<svg xmlns="http://www.w3.org/2000/svg" xml:space="preserve" width="105mm" height="23mm" version="1.1" style="shape-rendering:geometricPrecision; text-rendering:geometricPrecision; image-rendering:optimizeQuality; fill-rule:evenodd; clip-rule:evenodd"
viewBox="0 0 10500 2300"
 xmlns:xlink="http://www.w3.org/1999/xlink">
 <defs>
  <style type="text/css">
   <![CDATA[
    .fil0 {fill:#00AAFF}
   ]]>
  </style>
 </defs>
 <g id="Layer_x0020_1">
  <metadata id="CorelCorpID_0Corel-Layer"/>
  <path class="fil0" d="M1514 1875l0 -71 0 -87 0 -45c17,-58 26,-119 26,-182 0,-68 -11,-135 -32,-199l0 0c12,-15 19,-34 19,-58l0 0c0,-18 -7,-34 -62,-45l0 0c-3,-6 -336,-603 -570,-1023 -269,482 -564,1013 -566,1016 -37,6 -77,25 -75,61l0 0c1,17 13,39 31,54l0 0c-23,67 -35,123 -35,194l0 0c0,62 9,121 25,177l0 46 0 81 0 81c0,43 34,77 77,77l0 0 67 0c8,0 15,-1 22,-4l0 0c117,116 277,187 454,187l0 0c177,0 337,-71 454,-186l0 0c6,2 14,3 21,3l0 0 67 0c43,0 77,-34 77,-77zm-1210 -175l0 -8c-15,-54 -21,-133 -21,-242l0 0c0,-75 10,-116 83,-158l0 0c0,0 -68,-15 -76,-52l0 0c-7,-33 124,-34 124,-34l0 0c0,0 102,-147 168,-173l0 0c9,-4 153,-58 312,-55l0 0c94,1 231,22 313,55l0 0c66,26 168,173 168,173l0 0c0,0 123,8 123,27l0 0c-1,66 -75,59 -75,59l0 0c73,42 80,83 83,158l0 0c5,122 -6,187 -21,242l0 0 0 18 0 40 0 26 0 0 0 28 0 71c0,27 -21,48 -48,48l0 0 -67 0c-2,0 -12,-1 -15,-2l0 0c-19,-7 -33,-24 -33,-46l0 0 0 -73c-50,12 -112,29 -147,29l0 0 -281 0 -280 0c-35,0 -97,-17 -147,-29l0 0 0 73c0,21 -13,38 -31,45l0 0c0,0 0,0 0,0l0 0c-6,2 -11,3 -17,3l0 0 -67 0c-27,0 -48,-21 -48,-48l0 0 0 -81 0 0 0 -94 0 0zm4811 -644l362 0c9,0 17,-7 17,-17l0 -61 0 -34c0,-10 -8,-17 -17,-17l-362 0c-9,0 -17,7 -17,17l0 0 0 34 0 61c0,10 8,17 17,17zm-2628 -129l-75 0c-7,0 -12,1 -17,4l0 0c-4,3 -8,7 -12,13l0 0 -54 83c-3,5 -7,7 -13,7l0 0 -3 0c-5,0 -10,-2 -13,-7l0 0 -55 -83c-3,-6 -7,-10 -11,-13l0 0c-5,-3 -11,-4 -18,-4l-74 0c-7,0 -12,2 -15,5l0 0c-2,4 -2,9 3,15l0 0 88 119 -89 0c-56,0 -97,14 -124,42l0 0c-26,27 -39,64 -39,108l0 68c0,51 13,90 40,118l0 0c27,27 68,41 121,41l0 0 346 0c32,0 48,17 48,51l0 0 0 38c0,16 -3,29 -11,38l0 0c-7,9 -20,14 -38,14l0 0 -484 0c-14,0 -21,7 -21,20l0 0 0 88c0,13 7,20 21,20l0 0 511 0c56,0 97,-14 124,-41l0 0c26,-28 39,-64 39,-109l0 0 0 -74c0,-51 -13,-90 -40,-118l0 0c-27,-27 -68,-41 -121,-41l0 0 -346 0c-32,0 -48,-17 -48,-52l0 0 0 -31c0,-16 4,-29 11,-38l0 0c7,-9 20,-14 38,-14l0 0 462 0c14,0 20,-6 20,-20l0 0 0 -88c0,-13 -6,-20 -20,-20l0 0 -207 0 87 -119c5,-6 5,-11 3,-15l0 0c-3,-3 -8,-5 -14,-5zm3963 139l-489 0c-56,0 -98,14 -124,42l0 0c-27,27 -40,64 -40,108l0 68c0,51 14,90 41,118l0 0c27,27 67,41 121,41l0 0 346 0c32,0 48,17 48,51l0 0 0 38c0,16 -4,29 -11,38l0 0c-8,9 -20,14 -38,14l0 0 -485 0c-14,0 -21,7 -21,20l0 0 0 88c0,13 7,20 21,20l0 0 512 0c56,0 97,-14 123,-41l0 0c27,-28 40,-64 40,-109l0 0 0 -74c0,-51 -14,-90 -41,-118l0 0c-27,-27 -67,-41 -121,-41l0 0 -346 0c-32,0 -48,-17 -48,-52l0 0 0 -31c0,-16 4,-29 11,-38l0 0c8,-9 20,-14 38,-14l0 0 463 0c13,0 20,-6 20,-20l0 0 0 -88c0,-13 -7,-20 -20,-20zm-763 402l0 -382c0,-13 -6,-20 -20,-20l-101 0c-13,0 -20,7 -20,20l0 0 0 369c0,24 -2,45 -5,61l0 0c-4,16 -11,29 -20,39l0 0c-9,9 -21,16 -37,20l0 0c-16,4 -36,6 -60,6l0 0 -255 0c-24,0 -44,-2 -60,-6l0 0c-16,-4 -28,-11 -37,-20l0 0c-9,-10 -16,-23 -20,-39l0 0c-4,-16 -6,-37 -6,-61l0 0 0 -369c0,-13 -7,-20 -20,-20l-100 0c-14,0 -21,7 -21,20l0 0 0 382c0,45 4,82 14,113l0 0c10,32 25,57 45,76l0 0c21,20 47,34 80,42l0 0c33,9 72,13 119,13l0 0 266 0c47,0 87,-4 119,-13l0 0c33,-8 60,-22 81,-42l0 0c20,-19 35,-44 44,-76l0 0c10,-31 14,-68 14,-113zm-1085 -402l-496 0c-18,0 -27,9 -27,28l0 598c0,13 7,20 21,20l100 0c13,0 20,-7 20,-20l0 0 0 -184 298 0 146 192c3,4 6,7 9,9l0 0c3,2 9,3 17,3l119 0c8,0 13,-3 15,-9l0 0c1,-6 0,-11 -3,-14l0 0 -158 -196c49,-8 84,-28 105,-59l0 0c22,-30 32,-72 32,-125l0 0 0 -53c0,-63 -15,-110 -46,-142l0 0c-30,-32 -81,-48 -152,-48zm-382 138c0,-8 4,-12 12,-12l0 0 341 0c32,0 54,7 67,21l0 0c13,13 19,34 19,62l0 0 0 38c0,28 -6,49 -19,62l0 0c-13,14 -35,21 -67,21l0 0 -353 0 0 -192zm-631 -138l-123 0c-10,0 -17,4 -21,12l0 0 -267 497c-2,4 -6,6 -10,6l0 0 -5 0c-5,0 -9,-2 -11,-6l0 0 -270 -497c-2,-4 -5,-7 -8,-9l0 0c-3,-2 -7,-3 -13,-3l0 0 -117 0c-8,0 -12,2 -14,6l0 0c-1,4 -1,9 2,15l0 0 307 555c15,28 31,47 46,56l0 0c16,9 36,14 60,14l2 0 52 0 68 0c9,0 17,-4 21,-12l0 0 64 -119 433 0 66 119c4,8 11,12 21,12l117 0c8,0 12,-2 14,-6l0 0c1,-4 0,-9 -3,-15l0 0 -305 -555c-16,-27 -31,-46 -47,-56l0 0c-16,-9 -36,-14 -59,-14zm-34 138c2,-5 5,-7 10,-7l0 0 5 0c5,0 8,2 10,7l0 0 147 270 -317 0 145 -270zm6695 488l0 -606c0,-13 -7,-20 -20,-20l-100 0c-14,0 -21,7 -21,20l0 606c0,13 7,20 21,20l0 0 100 0c13,0 20,-7 20,-20zm-631 -626l-55 0c-19,0 -37,5 -51,14l0 0c-15,10 -30,29 -46,56l0 0 -302 555c-3,6 -4,11 -3,15l0 0c2,4 7,6 15,6l120 0c9,0 17,-4 21,-12l0 0 64 -119 433 0 66 119c4,8 11,12 21,12l117 0c8,0 12,-2 14,-6l0 0c1,-4 0,-9 -3,-15l0 0 -305 -555c-15,-27 -31,-46 -47,-56l0 0c-16,-9 -36,-14 -59,-14zm-34 138c2,-5 5,-7 10,-7l0 0 5 0c5,0 8,2 10,7l0 0 147 270 -317 0 145 -270zm-338 -27l0 -91c0,-13 -7,-20 -21,-20l-721 0c-14,0 -21,7 -21,20l0 91c0,14 7,21 21,21l0 0 290 0 0 494c0,13 6,20 20,20l0 0 101 0c13,0 20,-7 20,-20l0 0 0 -494 290 0c14,0 21,-7 21,-21zm-1094 -111l-54 0c-20,0 -37,5 -52,14l0 0c-15,10 -30,29 -45,56l0 0 -303 555c-3,6 -4,11 -2,15l0 0c1,4 6,6 14,6l120 0c10,0 17,-4 21,-12l0 0 64 -119 434 0 65 119c4,8 11,12 22,12l117 0c7,0 12,-2 13,-6l0 0c2,-4 1,-9 -2,-15l0 0 -306 -555c-15,-27 -31,-46 -47,-56l0 0c-16,-9 -35,-14 -59,-14zm-34 138c3,-5 6,-7 10,-7l0 0 6 0c4,0 7,2 10,7l0 0 147 270 -318 0 145 -270zm-687 -138l-496 0c-18,0 -28,9 -28,28l0 598c0,13 7,20 22,20l99 0c14,0 20,-7 20,-20l0 0 0 -184 299 0 145 192c3,4 7,7 10,9l0 0c3,2 8,3 16,3l119 0c9,0 14,-3 15,-9l0 0c1,-6 0,-11 -3,-14l0 0 -158 -196c49,-8 84,-28 106,-59l0 0c21,-30 32,-72 32,-125l0 0 0 -53c0,-63 -15,-110 -46,-142l0 0c-31,-32 -82,-48 -152,-48zm-383 138c0,-8 4,-12 12,-12l0 0 342 0c31,0 53,7 66,21l0 0c13,13 20,34 20,62l0 0 0 38c0,28 -7,49 -20,62l0 0c-13,14 -35,21 -66,21l0 0 -354 0 0 -192zm-6422 -158c-102,32 -211,253 -211,253 0,0 208,-30 478,-33l0 0c271,3 479,33 479,33 0,0 -109,-221 -211,-253l0 0c-98,-31 -189,-37 -268,-38 -78,1 -169,7 -267,38zm87 734l361 0c7,0 12,-3 12,-8l0 -63c0,-4 -5,-8 -12,-8l0 0 -361 0c-7,0 -12,4 -12,8l0 63c0,5 5,8 12,8zm689 -326l0 0c-18,0 -39,1 -61,4 -41,5 -83,15 -103,26l0 0c-50,28 -60,108 -60,108 0,0 172,-8 227,-32l0 0c53,-24 65,-78 46,-97l0 0c-6,-6 -25,-9 -49,-9zm-1017 0l0 0c-24,0 -43,3 -49,9 -19,19 -6,70 46,97l0 0c58,29 227,32 227,32l0 0c0,0 -10,-80 -60,-108l0 0c-20,-11 -62,-21 -103,-26l0 0c-22,-3 -43,-4 -61,-4zm241 43c0,62 153,122 267,122 114,0 268,-60 268,-122 0,-32 -265,-35 -268,-35 -2,0 -267,3 -267,35l0 0zm268 -1244c215,450 450,719 328,740l0 0c-2,0 -3,0 -5,0l0 0c-81,0 -146,-300 -323,-740z"/>
 </g>
</svg>
